<svg width="51" height="22" viewBox="0 0 51 22" fill="none" xmlns="http://www.w3.org/2000/svg">
<path d="M2.696 14.372H8.064V16H0.694V0.665999H2.696V14.372ZM15.4481 16.198C14.3188 16.198 13.2921 15.9413 12.3681 15.428C11.4588 14.9147 10.7401 14.1887 10.2121 13.25C9.69876 12.2967 9.44209 11.1967 9.44209 9.95C9.44209 8.718 9.70609 7.63267 10.2341 6.694C10.7768 5.74067 11.5101 5.01467 12.4341 4.516C13.3581 4.00267 14.3921 3.746 15.5361 3.746C16.6801 3.746 17.7141 4.00267 18.6381 4.516C19.5621 5.01467 20.2881 5.73333 20.8161 6.672C21.3588 7.61067 21.6301 8.70333 21.6301 9.95C21.6301 11.1967 21.3514 12.2967 20.7941 13.25C20.2514 14.1887 19.5108 14.9147 18.5721 15.428C17.6334 15.9413 16.5921 16.198 15.4481 16.198ZM15.4481 14.438C16.1668 14.438 16.8414 14.2693 17.4721 13.932C18.1028 13.5947 18.6088 13.0887 18.9901 12.414C19.3861 11.7393 19.5841 10.918 19.5841 9.95C19.5841 8.982 19.3934 8.16067 19.0121 7.486C18.6308 6.81133 18.1321 6.31267 17.5161 5.99C16.9001 5.65267 16.2328 5.484 15.5141 5.484C14.7808 5.484 14.1061 5.65267 13.4901 5.99C12.8888 6.31267 12.4048 6.81133 12.0381 7.486C11.6714 8.16067 11.4881 8.982 11.4881 9.95C11.4881 10.9327 11.6641 11.7613 12.0161 12.436C12.3828 13.1107 12.8668 13.6167 13.4681 13.954C14.0694 14.2767 14.7294 14.438 15.4481 14.438ZM29.2344 3.746C30.2757 3.746 31.185 3.97333 31.9624 4.428C32.7544 4.88267 33.341 5.45467 33.7224 6.144V3.944H35.7464V16.264C35.7464 17.364 35.5117 18.3393 35.0424 19.19C34.573 20.0553 33.8984 20.73 33.0184 21.214C32.153 21.698 31.141 21.94 29.9824 21.94C28.3984 21.94 27.0784 21.566 26.0224 20.818C24.9664 20.07 24.343 19.0507 24.1524 17.76H26.1324C26.3524 18.4933 26.807 19.08 27.4964 19.52C28.1857 19.9747 29.0144 20.202 29.9824 20.202C31.0824 20.202 31.977 19.8573 32.6664 19.168C33.3704 18.4787 33.7224 17.5107 33.7224 16.264V13.734C33.3264 14.438 32.7397 15.0247 31.9624 15.494C31.185 15.9633 30.2757 16.198 29.2344 16.198C28.1637 16.198 27.1884 15.934 26.3084 15.406C25.443 14.878 24.761 14.1373 24.2624 13.184C23.7637 12.2307 23.5144 11.1453 23.5144 9.928C23.5144 8.696 23.7637 7.618 24.2624 6.694C24.761 5.75533 25.443 5.02933 26.3084 4.516C27.1884 4.00267 28.1637 3.746 29.2344 3.746ZM33.7224 9.95C33.7224 9.04067 33.539 8.24867 33.1724 7.574C32.8057 6.89933 32.307 6.386 31.6764 6.034C31.0604 5.66733 30.3784 5.484 29.6304 5.484C28.8824 5.484 28.2004 5.66 27.5844 6.012C26.9684 6.364 26.477 6.87733 26.1104 7.552C25.7437 8.22667 25.5604 9.01867 25.5604 9.928C25.5604 10.852 25.7437 11.6587 26.1104 12.348C26.477 13.0227 26.9684 13.5433 27.5844 13.91C28.2004 14.262 28.8824 14.438 29.6304 14.438C30.3784 14.438 31.0604 14.262 31.6764 13.91C32.307 13.5433 32.8057 13.0227 33.1724 12.348C33.539 11.6587 33.7224 10.8593 33.7224 9.95ZM44.3875 16.198C43.2582 16.198 42.2315 15.9413 41.3075 15.428C40.3982 14.9147 39.6795 14.1887 39.1515 13.25C38.6382 12.2967 38.3815 11.1967 38.3815 9.95C38.3815 8.718 38.6455 7.63267 39.1735 6.694C39.7162 5.74067 40.4495 5.01467 41.3735 4.516C42.2975 4.00267 43.3315 3.746 44.4755 3.746C45.6195 3.746 46.6535 4.00267 47.5775 4.516C48.5015 5.01467 49.2275 5.73333 49.7555 6.672C50.2982 7.61067 50.5695 8.70333 50.5695 9.95C50.5695 11.1967 50.2909 12.2967 49.7335 13.25C49.1909 14.1887 48.4502 14.9147 47.5115 15.428C46.5729 15.9413 45.5315 16.198 44.3875 16.198ZM44.3875 14.438C45.1062 14.438 45.7809 14.2693 46.4115 13.932C47.0422 13.5947 47.5482 13.0887 47.9295 12.414C48.3255 11.7393 48.5235 10.918 48.5235 9.95C48.5235 8.982 48.3329 8.16067 47.9515 7.486C47.5702 6.81133 47.0715 6.31267 46.4555 5.99C45.8395 5.65267 45.1722 5.484 44.4535 5.484C43.7202 5.484 43.0455 5.65267 42.4295 5.99C41.8282 6.31267 41.3442 6.81133 40.9775 7.486C40.6109 8.16067 40.4275 8.982 40.4275 9.95C40.4275 10.9327 40.6035 11.7613 40.9555 12.436C41.3222 13.1107 41.8062 13.6167 42.4075 13.954C43.0089 14.2767 43.6689 14.438 44.3875 14.438Z" fill="black"/>
</svg>
